<svg xmlns="http://www.w3.org/2000/svg" width="64" height="64" fill="none"><g clip-path="url(#a)"><path fill="#FF461C" fill-rule="evenodd" d="M56 31.181v1.838L39.718 49.2l.03.03-.03.029 2.654 2.696-.008 1.793-10.307 10.245H30.24L19.649 53.467v-1.804l2.528-2.51-.029-.029.03-.029L6 33.02v-1.838l6.152-6.11-.03-.03.03-.029-2.705-2.688v-1.788L30.103 0H31.9l20.66 20.532v1.788l-2.708 2.688.03.03-.03.029 6.151 6.11-.004.004ZM37.923 47.374l15.364-15.272-5.254-5.222-.03.029-.029-.03-15.276 15.185.03.029-.03.029 5.166 5.248.03-.03.029.03v.004Zm10.156-24.129 1.832-1.821L31 2.63 12.089 21.424l1.832 1.821.03-.03.029.03L30.077 7.248h1.845L48.017 23.25l.03-.029.029.03.004-.005Zm-1.912 1.842.03-.029L31 9.95 15.804 25.054l.03.03-.03.028L31 40.217l15.196-15.105-.03-.029v.004Zm-6.458 27.755-1.778-1.805-.029.03-.03-.03-5.945 5.91h-1.845l-6.047-6.005-.03.029-.029-.03-1.64 1.63 8.823 8.774 8.559-8.503h-.009Zm-3.64-3.693-5.094-5.172-5.124 5.093.03.03-.03.029L31 54.247l5.07-5.035-.03-.03.03-.029v-.004Zm-6.813-7.081.029-.03L14.03 26.876l-.03.03-.029-.03-5.254 5.223L24.001 47.29l.03-.029.03.03 5.224-5.194-.03-.03Z" clip-rule="evenodd"/></g><defs><clipPath id="a"><path fill="#fff" d="M6 0h50v64H6z"/></clipPath></defs></svg>